<svg width="200" height="53" viewBox="0 0 200 53" fill="none" xmlns="http://www.w3.org/2000/svg">
<path fill-rule="evenodd" clip-rule="evenodd" d="M27.6915 2.84001L27.6634 2.79124H16.0011L2.18506 26.4759L11.669 43.0701L11.6807 43.05L15.266 49.26L42.6854 49.3826L52.3146 32.872H52.2505L55.8076 26.711L42.2041 2.90368L27.6915 2.84001ZM36.713 18.6348H36.7857L29.9302 6.72829L39.9477 6.77222L51.335 26.701L47.7708 32.8746L38.4302 32.8796L41.6869 27.2391L36.713 18.6348ZM25.3166 6.66959L29.9911 14.7562L23.5189 14.7561L12.4384 33.9719L11.6826 35.2775L6.66355 26.4956L18.2288 6.66959H25.3166ZM20.8222 27.1965L25.7593 18.6345L32.2332 18.6348L37.2077 27.2403L33.9503 32.882L24.1076 32.8874L20.8222 27.1965ZM13.9184 39.1691L15.7967 35.9119L18.5899 31.0871L21.8689 36.767L31.7102 36.7616L31.6943 36.7891L45.5308 36.8055L40.4634 45.4943L17.5109 45.3916L13.9184 39.1691Z" fill="#9DFBFC"/>
<path d="M71.5546 36.5942L77.0746 15.5942H83.9746L89.4947 36.5942H85.4146L84.2746 31.9742H76.7746L75.6346 36.5942H71.5546ZM77.7046 28.3142H83.3446L80.7946 18.0842H80.2546L77.7046 28.3142ZM98.1283 37.0142C96.9483 37.0142 95.8383 36.7242 94.7983 36.1442C93.7783 35.5442 92.9583 34.6742 92.3383 33.5342C91.7183 32.3942 91.4083 31.0142 91.4083 29.3942V28.9142C91.4083 27.2942 91.7183 25.9142 92.3383 24.7742C92.9583 23.6342 93.7783 22.7742 94.7983 22.1942C95.8183 21.5942 96.9283 21.2942 98.1283 21.2942C99.0283 21.2942 99.7783 21.4042 100.378 21.6242C100.998 21.8242 101.498 22.0842 101.878 22.4042C102.258 22.7242 102.548 23.0642 102.748 23.4242H103.288V15.5942H107.068V36.5942H103.348V34.7942H102.808C102.468 35.3542 101.938 35.8642 101.218 36.3242C100.518 36.7842 99.4883 37.0142 98.1283 37.0142ZM99.2683 33.7142C100.428 33.7142 101.398 33.3442 102.178 32.6042C102.958 31.8442 103.348 30.7442 103.348 29.3042V29.0042C103.348 27.5642 102.958 26.4742 102.178 25.7342C101.418 24.9742 100.448 24.5942 99.2683 24.5942C98.1083 24.5942 97.1383 24.9742 96.3583 25.7342C95.5783 26.4742 95.1883 27.5642 95.1883 29.0042V29.3042C95.1883 30.7442 95.5783 31.8442 96.3583 32.6042C97.1383 33.3442 98.1083 33.7142 99.2683 33.7142ZM115.999 36.5942V19.1942H109.879V15.5942H126.079V19.1942H119.959V36.5942H115.999ZM126.845 36.5942V21.7142H130.565V23.3942H131.105C131.325 22.7942 131.685 22.3542 132.185 22.0742C132.705 21.7942 133.305 21.6542 133.985 21.6542H135.785V25.0142H133.925C132.965 25.0142 132.175 25.2742 131.555 25.7942C130.935 26.2942 130.625 27.0742 130.625 28.1342V36.5942H126.845ZM143.008 37.0142C141.948 37.0142 140.998 36.8342 140.158 36.4742C139.318 36.0942 138.648 35.5542 138.148 34.8542C137.668 34.1342 137.428 33.2642 137.428 32.2442C137.428 31.2242 137.668 30.3742 138.148 29.6942C138.648 28.9942 139.328 28.4742 140.188 28.1342C141.068 27.7742 142.068 27.5942 143.188 27.5942H147.268V26.7542C147.268 26.0542 147.048 25.4842 146.608 25.0442C146.168 24.5842 145.468 24.3542 144.508 24.3542C143.568 24.3542 142.868 24.5742 142.408 25.0142C141.948 25.4342 141.648 25.9842 141.508 26.6642L138.028 25.4942C138.268 24.7342 138.648 24.0442 139.168 23.4242C139.708 22.7842 140.418 22.2742 141.298 21.8942C142.198 21.4942 143.288 21.2942 144.568 21.2942C146.528 21.2942 148.078 21.7842 149.218 22.7642C150.358 23.7442 150.928 25.1642 150.928 27.0242V32.5742C150.928 33.1742 151.208 33.4742 151.768 33.4742H152.968V36.5942H150.448C149.708 36.5942 149.098 36.4142 148.618 36.0542C148.138 35.6942 147.898 35.2142 147.898 34.6142V34.5842H147.328C147.248 34.8242 147.068 35.1442 146.788 35.5442C146.508 35.9242 146.068 36.2642 145.468 36.5642C144.868 36.8642 144.048 37.0142 143.008 37.0142ZM143.668 33.9542C144.728 33.9542 145.588 33.6642 146.248 33.0842C146.928 32.4842 147.268 31.6942 147.268 30.7142V30.4142H143.458C142.758 30.4142 142.208 30.5642 141.808 30.8642C141.408 31.1642 141.208 31.5842 141.208 32.1242C141.208 32.6642 141.418 33.1042 141.838 33.4442C142.258 33.7842 142.868 33.9542 143.668 33.9542ZM161.439 37.0142C160.259 37.0142 159.149 36.7242 158.109 36.1442C157.089 35.5442 156.269 34.6742 155.649 33.5342C155.029 32.3942 154.719 31.0142 154.719 29.3942V28.9142C154.719 27.2942 155.029 25.9142 155.649 24.7742C156.269 23.6342 157.089 22.7742 158.109 22.1942C159.129 21.5942 160.239 21.2942 161.439 21.2942C162.339 21.2942 163.089 21.4042 163.689 21.6242C164.309 21.8242 164.809 22.0842 165.189 22.4042C165.569 22.7242 165.859 23.0642 166.059 23.4242H166.599V15.5942H170.379V36.5942H166.659V34.7942H166.119C165.779 35.3542 165.249 35.8642 164.529 36.3242C163.829 36.7842 162.799 37.0142 161.439 37.0142ZM162.579 33.7142C163.739 33.7142 164.709 33.3442 165.489 32.6042C166.269 31.8442 166.659 30.7442 166.659 29.3042V29.0042C166.659 27.5642 166.269 26.4742 165.489 25.7342C164.729 24.9742 163.759 24.5942 162.579 24.5942C161.419 24.5942 160.449 24.9742 159.669 25.7342C158.889 26.4742 158.499 27.5642 158.499 29.0042V29.3042C158.499 30.7442 158.889 31.8442 159.669 32.6042C160.449 33.3442 161.419 33.7142 162.579 33.7142ZM181.35 37.0142C179.87 37.0142 178.56 36.7042 177.42 36.0842C176.3 35.4442 175.42 34.5542 174.78 33.4142C174.16 32.2542 173.85 30.8942 173.85 29.3342V28.9742C173.85 27.4142 174.16 26.0642 174.78 24.9242C175.4 23.7642 176.27 22.8742 177.39 22.2542C178.51 21.6142 179.81 21.2942 181.29 21.2942C182.75 21.2942 184.02 21.6242 185.1 22.2842C186.18 22.9242 187.02 23.8242 187.62 24.9842C188.22 26.1242 188.52 27.4542 188.52 28.9742V30.2642H177.69C177.73 31.2842 178.11 32.1142 178.83 32.7542C179.55 33.3942 180.43 33.7142 181.47 33.7142C182.53 33.7142 183.31 33.4842 183.81 33.0242C184.31 32.5642 184.69 32.0542 184.95 31.4942L188.04 33.1142C187.76 33.6342 187.35 34.2042 186.81 34.8242C186.29 35.4242 185.59 35.9442 184.71 36.3842C183.83 36.8042 182.71 37.0142 181.35 37.0142ZM177.72 27.4442H184.68C184.6 26.5842 184.25 25.8942 183.63 25.3742C183.03 24.8542 182.24 24.5942 181.26 24.5942C180.24 24.5942 179.43 24.8542 178.83 25.3742C178.23 25.8942 177.86 26.5842 177.72 27.4442Z" fill="#FDFEFF"/>
</svg>
